<svg xmlns="http://www.w3.org/2000/svg" viewBox="0 0 134.95 139.28"><defs><style>.cls-1{fill:#f5f5f5;}.cls-2{fill:#fafafa;}.cls-3{fill:#ebebeb;}.cls-4{fill:#e0e0e0;}.cls-5{fill:#263238;}.cls-6{fill:#e8505b;}.cls-7{fill:#455a64;}.cls-10,.cls-8{fill:#fff;}.cls-9{opacity:0.3;}.cls-10{opacity:0.6;}</style></defs><g id="Background_Complete" data-name="Background Complete"><path class="cls-1" d="M729.73,138.81c.22-1.62-2.05-2.94-3.76-3.08a9.36,9.36,0,0,1-2.43-.21c-1.67-.58-2.34-2.74-4-3.43a4.72,4.72,0,0,0-3.81.54,9.93,9.93,0,0,1-3.67,1.43c-1.15.07-2.39-.35-3.4.21-.75.42-1.14,1.28-1.83,1.79a4.41,4.41,0,0,1-2.39.65,6.61,6.61,0,0,0-2.47.4,2,2,0,0,0-1.24,2Z" transform="translate(-597.54 -85.09)"/><path class="cls-2" d="M655.4,112.37c.17-1.27-1.62-2.31-3-2.42a7.67,7.67,0,0,1-1.92-.16c-1.31-.46-1.84-2.16-3.12-2.7a3.63,3.63,0,0,0-3,.42,7.67,7.67,0,0,1-2.89,1.12c-.91.06-1.89-.27-2.68.17-.59.33-.9,1-1.44,1.41a3.49,3.49,0,0,1-1.88.51,5.12,5.12,0,0,0-1.95.32,1.53,1.53,0,0,0-1,1.55Z" transform="translate(-597.54 -85.09)"/><path class="cls-1" d="M641.65,104c.29-2.12-2.7-3.86-4.95-4a12.59,12.59,0,0,1-3.2-.27c-2.2-.77-3.08-3.61-5.23-4.52-1.6-.67-3.45-.07-5,.71s-3.09,1.77-4.83,1.88c-1.52.1-3.16-.46-4.48.28-1,.55-1.5,1.68-2.41,2.35a5.72,5.72,0,0,1-3.15.86,8.84,8.84,0,0,0-3.25.53,2.56,2.56,0,0,0-1.63,2.61Z" transform="translate(-597.54 -85.09)"/><path class="cls-3" d="M618.09,182.38s-2.22-.72-3.26,4.4a61.06,61.06,0,0,0-1.19,8s-.34,1.11-1.16.67-2.19-1.93-3.2-1.31-1.07,2-.34,3.82,2.21,5.83,2.34,6.2.07.95-.54.74-4.42-2.65-5.47-.76,1.83,6.58,2.13,7.1.26.79,0,1-1.43-.73-2.55-1.38-2.52-1.2-3-.07.3,5,5.67,10.25l2.65,2.25,3.31-1.12c6.93-2.82,9.14-6.13,9.09-7.38s-1.57-1.25-2.84-1.07-2.75.61-2.88.33-.07-.55.4-.92,4.91-3.65,4.64-5.79-4.73-1.31-5.37-1.34-.47-.61-.22-.89,3.13-3.47,4.48-4.87,1.86-2.69,1.12-3.68-2.53-.07-3.46,0-.82-1.06-.82-1.06a60.58,60.58,0,0,0,1.87-7.83c1-5.14-1.44-5.29-1.44-5.29" transform="translate(-597.54 -85.09)"/><path class="cls-4" d="M609.8,224c.71-3.77,2.09-10.46,3.24-16.21s2.2-10.95,2.93-14.72c.36-1.88.65-3.41.86-4.47.1-.52.18-.93.23-1.21l.07-.32a.65.65,0,0,1,0-.1.82.82,0,0,1,0,.1l0,.32c-.05.29-.13.7-.22,1.22-.19,1.06-.47,2.59-.83,4.47-.71,3.78-1.74,9-2.89,14.73s-2.54,12.44-3.27,16.21" transform="translate(-597.54 -85.09)"/><path class="cls-4" d="M611.11,196.27a1.07,1.07,0,0,1,.15.21c.09.13.21.33.36.57.3.5.7,1.19,1.13,2l1.08,2,.33.6a1.71,1.71,0,0,1,.11.22s-.06-.07-.15-.2l-.36-.58c-.3-.5-.68-1.2-1.11-2l-1.09-2-.34-.59Z" transform="translate(-597.54 -85.09)"/><path class="cls-4" d="M614.59,201.79s1.38-.91,3.11-2,3.15-1.91,3.16-1.88-1.37.91-3.1,2S614.61,201.81,614.59,201.79Z" transform="translate(-597.54 -85.09)"/><path class="cls-4" d="M612.42,210.53l.25-.08.67-.18c.57-.16,1.35-.38,2.21-.65s1.62-.54,2.17-.75l.66-.24.24-.07s-.08.05-.23.11-.37.17-.64.27c-.55.23-1.31.51-2.17.78s-1.65.49-2.22.62l-.68.15A.7.7,0,0,1,612.42,210.53Z" transform="translate(-597.54 -85.09)"/><path class="cls-4" d="M608.18,206.24a1,1,0,0,1,.18.15l.47.44c.4.37.94.9,1.53,1.48s1.12,1.12,1.5,1.51l.45.46a1,1,0,0,1,.15.18l-.18-.15-.47-.44c-.4-.37-.94-.9-1.53-1.48l-1.5-1.51-.45-.46A1,1,0,0,1,608.18,206.24Z" transform="translate(-597.54 -85.09)"/><path class="cls-4" d="M605.28,213.72s.09.06.23.19l.61.56c.51.48,1.21,1.15,2,1.89s1.45,1.41,1.95,1.9l.58.59c.14.14.21.22.2.23l-.23-.2-.6-.56c-.51-.48-1.21-1.14-2-1.88s-1.46-1.42-1.95-1.91l-.59-.59Z" transform="translate(-597.54 -85.09)"/><path class="cls-4" d="M610.73,218.91l.3-.11.85-.26c.71-.23,1.7-.54,2.77-.91s2-.74,2.74-1l.83-.32a2.69,2.69,0,0,1,.3-.11,1.3,1.3,0,0,1-.29.15l-.81.35c-.69.29-1.65.66-2.73,1s-2.07.68-2.79.88l-.85.23Z" transform="translate(-597.54 -85.09)"/><path class="cls-3" d="M679.39,203.2a4.51,4.51,0,0,1,3.23,1.37,7.9,7.9,0,0,1,1.82,3.08,13.9,13.9,0,0,1,.11,7.16c-2.49-.7-4.18-3.18-4.95-4.49-1.23-2.07-2.19-6.57-.21-7.12" transform="translate(-597.54 -85.09)"/><path class="cls-3" d="M688.24,217.27a3.83,3.83,0,0,1-.45-3.81,5.11,5.11,0,0,1,2.87-2.68,2.14,2.14,0,0,1,1.8,0,1.62,1.62,0,0,1,.74,1.48,3.28,3.28,0,0,1-.58,1.62c-1.07,1.69-2.41,3.12-4.38,3.43" transform="translate(-597.54 -85.09)"/><path class="cls-4" d="M688.48,223.09a7.43,7.43,0,0,1-.42-1.48,6.47,6.47,0,0,1-.15-1.67,15,15,0,0,1,.13-2.05,7.7,7.7,0,0,1,1.37-3.46,6,6,0,0,1,.78-.83,1.22,1.22,0,0,1,.34-.24s-.44.41-1,1.18a8.1,8.1,0,0,0-1.26,3.39,18.34,18.34,0,0,0-.15,2,7.57,7.57,0,0,0,.09,1.64A11.85,11.85,0,0,1,688.48,223.09Z" transform="translate(-597.54 -85.09)"/><path class="cls-4" d="M680.42,206.56a4.1,4.1,0,0,1,.41.67c.24.43.59,1.07,1,1.86.84,1.58,2,3.77,3.18,6.23s2.22,4.71,2.93,6.35c.35.83.63,1.5.81,2a3.46,3.46,0,0,1,.26.74,7.11,7.11,0,0,1-.35-.7l-.89-1.92c-.75-1.63-1.79-3.86-3-6.32s-2.3-4.61-3.11-6.26l-.94-1.9A5.41,5.41,0,0,1,680.42,206.56Z" transform="translate(-597.54 -85.09)"/><path class="cls-3" d="M686,219.34a9,9,0,0,0-7.7-2.77c-.71.1-1.53.4-1.71,1.1s.4,1.36,1,1.78a7.65,7.65,0,0,0,8.48.08" transform="translate(-597.54 -85.09)"/><path class="cls-4" d="M679.81,218a1.17,1.17,0,0,1,.4,0,10.27,10.27,0,0,1,1.12,0,10.14,10.14,0,0,1,3.59.78,6.28,6.28,0,0,1,1.71,1.13,6.36,6.36,0,0,1,1,1.3,6.13,6.13,0,0,1,.48,1,1.71,1.71,0,0,1,.12.4s-.26-.53-.76-1.31a6.87,6.87,0,0,0-1-1.23,6.5,6.5,0,0,0-1.65-1.06,11.32,11.32,0,0,0-3.51-.83A14.34,14.34,0,0,1,679.81,218Z" transform="translate(-597.54 -85.09)"/><polygon class="cls-4" points="15.41 55.98 11.77 48.48 8.11 50.81 2.5 45.99 7.59 53.41 11.29 51.03 15.41 55.98"/><polygon class="cls-4" points="14.32 58.04 9.25 55.57 8.28 58.33 3.28 58.11 9.08 59.94 10.06 57.12 14.32 58.04"/></g><g id="Background_Simple" data-name="Background Simple"><path class="cls-3" d="M705.59,152.06c-6.71-1.12-13.89.82-20.24-1.61-5.65-2.16-9.53-7.39-12.34-12.74s-4.87-11.15-8.5-16c-7.18-9.55-20.17-14-31.91-11.83s-21.91,10.71-27,21.51-5.31,23.64-1.42,34.94,11.66,21.07,21.27,28.18c9.35,8.47,31.59,15.69,43.93,16.35,12,.64,26.62,1.37,37.32-4.13s18.86-16.51,19.17-28.53S717.46,154,705.59,152.06Z" transform="translate(-597.54 -85.09)"/></g><g id="Plant"><path class="cls-5" d="M710.11,216.19l-.19,0c-.12,0-.3-.09-.53-.14a11.83,11.83,0,0,0-2-.32,12.18,12.18,0,0,0-2.95.13,11.67,11.67,0,0,0-3.44,1.11,12.14,12.14,0,0,0-4.78,4.42,13.43,13.43,0,0,0-.92,1.77c-.09.22-.15.4-.2.51a1.52,1.52,0,0,1-.07.18s0-.07,0-.19.09-.3.18-.52a10.6,10.6,0,0,1,.88-1.81,11.67,11.67,0,0,1,1.84-2.35,11.49,11.49,0,0,1,6.44-3.26,11.5,11.5,0,0,1,5,.27c.23.06.4.13.52.17Z" transform="translate(-597.54 -85.09)"/><path class="cls-6" d="M709.09,215.73a4.43,4.43,0,0,0-.83,4.46c.12.3.33.62.65.62s.54-.35.65-.67a5.17,5.17,0,0,0-.37-4.11,6,6,0,0,0,2.17,2.68c.37.25.88.45,1.23.18s.31-.78.17-1.18a3.47,3.47,0,0,0-3.48-2.24,3.28,3.28,0,0,0,3.22-1.92c.2-.47.22-1.13-.23-1.37a1.1,1.1,0,0,0-.9.07,4.15,4.15,0,0,0-2.33,2.6,3.69,3.69,0,0,0-.67-4,1.28,1.28,0,0,0-1.21-.48c-.55.16-.74.86-.72,1.43a4.78,4.78,0,0,0,1.93,3.68,2.74,2.74,0,0,0-2.53-.22c-.54.23-1,.82-.8,1.34s.93.55,1.48.45a6.81,6.81,0,0,0,2.75-1.18" transform="translate(-597.54 -85.09)"/><path class="cls-7" d="M698.89,218.06a9.09,9.09,0,0,0,6.89,3.4,2.13,2.13,0,0,0-1-1.39,9.39,9.39,0,0,0-5.82-1.91" transform="translate(-597.54 -85.09)"/><path class="cls-5" d="M708.81,218.87a14.71,14.71,0,0,0,.29-1.72,12,12,0,0,0-.09-1.73,4.56,4.56,0,0,1-.2,3.45Z" transform="translate(-597.54 -85.09)"/><path class="cls-5" d="M711,217.63a7,7,0,0,0-.86-1.12c-.57-.53-1.15-.82-1.13-.87a3,3,0,0,1,1.24.76A2.26,2.26,0,0,1,711,217.63Z" transform="translate(-597.54 -85.09)"/><path class="cls-5" d="M710.92,213.75a2.5,2.5,0,0,1-.69,1.19,2.08,2.08,0,0,1-1.19.72,5.42,5.42,0,0,0,1.07-.82A10,10,0,0,0,710.92,213.75Z" transform="translate(-597.54 -85.09)"/><path class="cls-2" d="M709.07,215a.52.52,0,0,1,.51.29.53.53,0,0,1-.07.59,1.64,1.64,0,0,0-.43-.24,2.27,2.27,0,0,0,0-.64" transform="translate(-597.54 -85.09)"/><path class="cls-5" d="M707.5,211.84a2.22,2.22,0,0,1,.42.46,5.5,5.5,0,0,1,1.05,2.8,1.82,1.82,0,0,1,0,.62,10.69,10.69,0,0,0-.47-2A11.07,11.07,0,0,0,707.5,211.84Z" transform="translate(-597.54 -85.09)"/><path class="cls-6" d="M602.53,212.62a2.37,2.37,0,0,1,1.7.74,4.23,4.23,0,0,1,.94,1.63,7.34,7.34,0,0,1,0,3.78,5,5,0,0,1-2.58-2.4c-.64-1.1-1.12-3.48-.07-3.75" transform="translate(-597.54 -85.09)"/><path class="cls-6" d="M607.11,220.09a2,2,0,0,1-.21-2,2.67,2.67,0,0,1,1.53-1.4,1.17,1.17,0,0,1,1,0,.89.89,0,0,1,.38.79,1.71,1.71,0,0,1-.32.85,3.47,3.47,0,0,1-2.33,1.78" transform="translate(-597.54 -85.09)"/><path class="cls-5" d="M607.5,224a1.78,1.78,0,0,1-.08-.24l-.17-.67a7.47,7.47,0,0,1-.28-2.26,4.36,4.36,0,0,1,.71-2.15,3.24,3.24,0,0,1,.46-.52,1.11,1.11,0,0,1,.15-.12l.05,0a6.11,6.11,0,0,0-.6.71,4.43,4.43,0,0,0-.68,2.13,7.56,7.56,0,0,0,.25,2.24c.07.28.12.51.15.67S607.5,224,607.5,224Z" transform="translate(-597.54 -85.09)"/><path class="cls-5" d="M603.05,214.39s0,0,.06.1l.15.27.53,1c.44.88,1,2.09,1.66,3.45s1.16,2.6,1.53,3.5c.19.45.34.82.44,1.07l.11.3,0,.1-.05-.09-.13-.29-.46-1.06c-.39-.9-.94-2.14-1.56-3.49s-1.21-2.58-1.64-3.46c-.21-.43-.38-.78-.5-1l-.14-.28A.82.82,0,0,1,603.05,214.39Z" transform="translate(-597.54 -85.09)"/><path class="cls-6" d="M605.81,221.51a4.69,4.69,0,0,0-3.79-2c-.38,0-.83.08-1,.43a1,1,0,0,0,.38,1,4,4,0,0,0,4.41.71" transform="translate(-597.54 -85.09)"/><path class="cls-5" d="M602.66,220.45h.52c.1,0,.23,0,.36.05l.44.09c.16,0,.32.1.49.16a5.06,5.06,0,0,1,1.06.54,5.71,5.71,0,0,1,.89.78c.11.13.23.27.32.4a3.36,3.36,0,0,1,.24.38,2.08,2.08,0,0,1,.17.33,1.28,1.28,0,0,1,.11.25,2,2,0,0,1,.08.23s-.13-.32-.41-.78c-.08-.11-.15-.24-.25-.37s-.21-.25-.33-.39a5.51,5.51,0,0,0-.87-.76,6.41,6.41,0,0,0-1-.54,3.4,3.4,0,0,0-.49-.15c-.15,0-.3-.08-.43-.11C603,220.46,602.66,220.46,602.66,220.45Z" transform="translate(-597.54 -85.09)"/></g><g id="Poster"><polygon class="cls-7" points="89.55 139.16 97.6 139.16 109.15 83.23 101.43 81.64 89.55 139.16"/><polygon class="cls-5" points="124.23 121.44 75.58 111.39 74.21 110.15 79.35 93.17 81.61 93.32 78.13 91.46 80.12 81.54 128.76 91.58 130.14 92.82 128.12 102.58 124.27 102.66 126.39 103.06 127.77 104.3 124.23 121.44"/><polygon class="cls-7" points="122.85 120.2 74.21 110.15 77.97 91.93 80.23 92.08 78.34 90.12 80.12 81.54 128.76 91.58 126.74 101.35 122.89 101.42 126.39 103.06 122.85 120.2"/><path class="cls-5" d="M721.47,186.41h-.12l-.34,0-1.31-.11-1-.08-1.12-.13c-.8-.1-1.72-.2-2.73-.36l-1.58-.24-1.71-.3c-1.18-.2-2.44-.47-3.76-.73-2.64-.56-5.53-1.24-8.54-2-6-1.55-11.46-3-15.43-4-1-.25-1.88-.46-2.67-.65s-1.47-.34-2-.46l-1.28-.3-.34-.08-.11,0h.12l.33.07,1.29.26c.56.11,1.24.25,2,.43s1.69.38,2.68.62c4,.94,9.42,2.41,15.44,4,3,.77,5.9,1.46,8.53,2,1.32.27,2.58.54,3.76.75.59.11,1.15.22,1.7.31l1.58.25c1,.17,1.92.28,2.72.39l1.12.15,1,.09,1.3.15.34,0Z" transform="translate(-597.54 -85.09)"/><path class="cls-5" d="M723.91,184.85l-.11-.07-.31-.22c-.27-.2-.65-.5-1.17-.86a42.38,42.38,0,0,0-4.56-2.8,43,43,0,0,0-7.3-3,42.16,42.16,0,0,0-9.52-1.75,96.31,96.31,0,0,0-9.72.15,36.88,36.88,0,0,1-4.25-.09,27,27,0,0,1-3.66-.54A28.08,28.08,0,0,1,678.2,174c-.59-.25-1-.46-1.33-.6l-.34-.17-.11-.07.12.05.35.15c.3.14.75.34,1.34.57a29,29,0,0,0,5.11,1.54A28.17,28.17,0,0,0,687,176a36.65,36.65,0,0,0,4.23.07,96.22,96.22,0,0,1,9.73-.16,41.85,41.85,0,0,1,9.56,1.77,42.61,42.61,0,0,1,7.31,3.09,40.32,40.32,0,0,1,4.54,2.85c.51.37.89.69,1.16.89l.29.23Z" transform="translate(-597.54 -85.09)"/><path class="cls-5" d="M700.4,171.77l-.23.09-.67.19c-.29.09-.64.19-1.06.29s-.89.22-1.42.31-1.11.23-1.74.31-1.3.18-2,.26A38.42,38.42,0,0,1,684,173c-.71-.11-1.38-.21-2-.35s-1.2-.25-1.72-.38-1-.27-1.41-.38-.76-.23-1-.33l-.66-.23a.92.92,0,0,1-.23-.09.67.67,0,0,1,.24.06l.67.19,1,.3c.42.1.88.24,1.41.35s1.1.26,1.72.36,1.29.23,2,.33a42.44,42.44,0,0,0,4.61.37,45.2,45.2,0,0,0,4.62-.16c.7-.08,1.38-.14,2-.25s1.21-.18,1.74-.28,1-.21,1.42-.29l1.07-.25.67-.17Z" transform="translate(-597.54 -85.09)"/><path class="cls-5" d="M687.46,189.17l.22.13.64.39c.56.34,1.38.86,2.49,1.45a16.38,16.38,0,0,0,4.23,1.64,9.52,9.52,0,0,0,1.35.21,2.19,2.19,0,0,0,1.37-.3,1.08,1.08,0,0,0,.41-.59,1.47,1.47,0,0,0,0-.75,2.32,2.32,0,0,0-.93-1.25,28.74,28.74,0,0,0-14.85-4.42c-.73,0-1.48,0-2.24,0a2.84,2.84,0,0,0-2,.76,1.43,1.43,0,0,0-.39,1,1.83,1.83,0,0,0,.42,1A7.84,7.84,0,0,0,680,190a44.43,44.43,0,0,0,8.67,4.85,19.34,19.34,0,0,0,9.72,1.33,13.75,13.75,0,0,0,2.32-.55,4,4,0,0,0,1.91-1.21,3.37,3.37,0,0,0,.69-2.09,5.07,5.07,0,0,0-.48-2.14,7.81,7.81,0,0,0-2.86-3.11,14.43,14.43,0,0,0-3.72-1.6c-1.26-.36-2.5-.62-3.69-.9l-3.43-.77-10.34-2.35-2.81-.65-.73-.17-.25-.07.25.05.74.16,2.81.61,10.36,2.29,3.43.77c1.19.27,2.44.52,3.71.89a13.8,13.8,0,0,1,3.75,1.61,8,8,0,0,1,2.93,3.17,5.22,5.22,0,0,1,.5,2.21,3.6,3.6,0,0,1-.72,2.2,4.2,4.2,0,0,1-2,1.27,14.22,14.22,0,0,1-2.34.55,19.48,19.48,0,0,1-9.82-1.33,44.68,44.68,0,0,1-8.7-4.87,8.08,8.08,0,0,1-1.86-1.53,2,2,0,0,1-.45-1.13,1.57,1.57,0,0,1,.43-1.12,2.34,2.34,0,0,1,1-.63,4.46,4.46,0,0,1,1.15-.19c.76,0,1.51,0,2.25,0A28.68,28.68,0,0,1,697.31,190a2.43,2.43,0,0,1,1,1.32,1.59,1.59,0,0,1,0,.81,1.17,1.17,0,0,1-.45.65,2.27,2.27,0,0,1-1.44.32,11.21,11.21,0,0,1-1.37-.22,16.26,16.26,0,0,1-4.24-1.68c-1.11-.6-1.92-1.13-2.48-1.48l-.63-.41Z" transform="translate(-597.54 -85.09)"/><path class="cls-5" d="M723,192.33l-.28-.06c-.18-.05-.46-.1-.81-.16a9.86,9.86,0,0,0-3,0,15.2,15.2,0,0,0-4.28,1.38,40.93,40.93,0,0,0-4.76,2.83,37.66,37.66,0,0,1-4.8,2.81,14.72,14.72,0,0,1-4.35,1.31,9.4,9.4,0,0,1-3.06-.09q-.54-.12-.81-.21a1.08,1.08,0,0,1-.27-.1l.28.06a6.09,6.09,0,0,0,.81.18,9.88,9.88,0,0,0,3,0,14.85,14.85,0,0,0,4.3-1.33,40.16,40.16,0,0,0,4.77-2.81,40.29,40.29,0,0,1,4.78-2.83,15.12,15.12,0,0,1,4.34-1.36,9.7,9.7,0,0,1,3.06,0,7.17,7.17,0,0,1,.81.19A1.08,1.08,0,0,1,723,192.33Z" transform="translate(-597.54 -85.09)"/><path class="cls-5" d="M722.06,197.15s-.23-.08-.65-.17a5.06,5.06,0,0,0-1.84-.06,10.25,10.25,0,0,0-2.61.81,22.1,22.1,0,0,0-3,1.56c-1,.61-2,1.2-3,1.65a11.9,11.9,0,0,1-2.61.94,7.45,7.45,0,0,1-1.87.19,3.93,3.93,0,0,1-.5,0l-.18,0s.25,0,.69,0a8.88,8.88,0,0,0,1.83-.24,12.74,12.74,0,0,0,2.56-1c.93-.45,1.91-1,2.94-1.66a22.85,22.85,0,0,1,3-1.56,10.32,10.32,0,0,1,2.67-.78,4.71,4.71,0,0,1,1.86.12,4.36,4.36,0,0,1,.48.16C722,197.12,722.07,197.14,722.06,197.15Z" transform="translate(-597.54 -85.09)"/><path class="cls-5" d="M706.39,172.6c0,.05-1.87-.31-4.16-.82s-4.14-.95-4.13-1,1.88.32,4.17.83S706.4,172.56,706.39,172.6Z" transform="translate(-597.54 -85.09)"/><path class="cls-8" d="M692.93,183.84l-1.52-.33-.43,2-2.83-.61.43-2-5.42-1.18.42-1.89,6-5.4,3,.65-5.48,5.08,2.08.46.38-1.75,2.74.6-.38,1.74,1.52.33Z" transform="translate(-597.54 -85.09)"/><path class="cls-8" d="M694.21,180.81c.74-3.39,3.06-4.92,5.68-4.35s4.09,2.93,3.35,6.31-3.06,4.92-5.67,4.35S693.47,184.19,694.21,180.81Zm6.12,1.33c.47-2.15,0-3.1-1-3.31s-1.79.46-2.26,2.61,0,3.11,1,3.31S699.86,184.29,700.33,182.14Z" transform="translate(-597.54 -85.09)"/><path class="cls-8" d="M713.22,188.26l-1.52-.33-.43,2-2.83-.61.43-2-5.42-1.18.41-1.89,6-5.39,3,.65-5.48,5.08,2.08.45.38-1.74,2.74.6-.38,1.74,1.52.33Z" transform="translate(-597.54 -85.09)"/><path class="cls-8" d="M690.76,191.11l-.15.64-3.08-.72,1-4.11,3,.7-.15.64-2.24-.52-.25,1.07,2,.46-.15.63-2-.46-.27,1.13Z" transform="translate(-597.54 -85.09)"/><path class="cls-8" d="M694.16,192.59l-.56-1.41-.16,0-.93-.22-.28,1.2-.76-.18,1-4.11,1.69.4c1.09.25,1.63,1,1.41,1.87a1.34,1.34,0,0,1-1.18,1.09l.63,1.58Zm-.22-3.71-.9-.21-.38,1.64.89.2c.67.16,1.09-.06,1.21-.58S694.61,189,693.94,188.88Z" transform="translate(-597.54 -85.09)"/><path class="cls-8" d="M698.46,193.59l-.56-1.4-.16,0-.93-.22-.28,1.2-.77-.18,1-4.11,1.69.39c1.08.26,1.62,1,1.41,1.88a1.35,1.35,0,0,1-1.18,1.09l.63,1.58Zm-.23-3.71-.89-.21-.38,1.64.89.21c.67.16,1.09-.07,1.21-.58S698.9,190,698.23,189.88Z" transform="translate(-597.54 -85.09)"/><path class="cls-8" d="M700.25,191.84a2.28,2.28,0,1,1,1.72,2.64A2.16,2.16,0,0,1,700.25,191.84Zm3.66.86a1.48,1.48,0,1,0-1.78,1.11A1.43,1.43,0,0,0,703.91,192.7Z" transform="translate(-597.54 -85.09)"/><path class="cls-8" d="M707.7,195.76l-.56-1.4-.16,0-.92-.22-.29,1.2-.76-.18,1-4.11,1.69.39c1.08.26,1.62,1,1.41,1.88a1.36,1.36,0,0,1-1.18,1.09l.63,1.57Zm-.22-3.71-.89-.21-.39,1.64.9.21c.67.16,1.09-.07,1.21-.58S708.15,192.21,707.48,192.05Z" transform="translate(-597.54 -85.09)"/></g><g id="Ballon"><path class="cls-5" d="M694.46,124.46l.11.06.32.18a8.52,8.52,0,0,1,1.13.82,10,10,0,0,1,2.92,4.21,10.65,10.65,0,0,1,.62,3.51,11.22,11.22,0,0,1-.7,4,11,11,0,0,1-2.36,3.85,8.9,8.9,0,0,1-1.87,1.51,8.5,8.5,0,0,1-2.28.94,15.67,15.67,0,0,1-4.85.28c-1.56-.12-3.06-.32-4.49-.39a13.59,13.59,0,0,0-4,.33,7.56,7.56,0,0,0-3.13,1.56,5.27,5.27,0,0,0-1.6,2.39,4.86,4.86,0,0,0-.2,2.17,4,4,0,0,0,.43,1.32c.16.27.26.41.26.41a2.8,2.8,0,0,1-.28-.4,3.65,3.65,0,0,1-.47-1.32,4.85,4.85,0,0,1,.18-2.21,5.24,5.24,0,0,1,1.61-2.44,7.6,7.6,0,0,1,3.17-1.6,13.19,13.19,0,0,1,4.07-.35c1.45.06,3,.26,4.5.38a15.6,15.6,0,0,0,4.8-.28,8.52,8.52,0,0,0,2.24-.92,8.92,8.92,0,0,0,1.84-1.48,11.15,11.15,0,0,0,2.34-3.79,11.71,11.71,0,0,0,.71-4,10.72,10.72,0,0,0-.6-3.47,10.1,10.1,0,0,0-2.86-4.2,9.18,9.18,0,0,0-1.11-.84l-.31-.2C694.49,124.49,694.46,124.47,694.46,124.46Z" transform="translate(-597.54 -85.09)"/><path class="cls-1" d="M674,87.06a25.18,25.18,0,0,1,1.65,6.86,8.44,8.44,0,0,1-2.26,6.49c-2,1.88-4.93,2.24-7.65,2.5,2,.07,4.1.53,5.28,2.1,1.34,1.8.9,4.37,0,6.42s-2.27,4-2.64,6.18a10.25,10.25,0,0,1,15.73,8.81,13.45,13.45,0,0,1,8-6.75,10.54,10.54,0,0,1,10,2.32,13.28,13.28,0,0,1,3.63-18.67,4.83,4.83,0,0,1-5.71,0,7.9,7.9,0,0,1-3-5.19,23.3,23.3,0,0,1,0-6.13,5.86,5.86,0,0,1-7.81,1.11c-2.4-1.77-3-5-3.43-8a5.95,5.95,0,0,1-11.64,2.13" transform="translate(-597.54 -85.09)"/><path class="cls-6" d="M693,122.78a9.34,9.34,0,0,0,.61,4.17,1.69,1.69,0,0,0,.37.7.69.69,0,0,0,.73.2.93.93,0,0,0,.44-.6,5,5,0,0,0,.27-1.61,2.9,2.9,0,0,0,1.47.69c.54,0,1.15-.42,1.06-1a1.42,1.42,0,0,0-.52-.76l-2.93-2.7-1.5.87" transform="translate(-597.54 -85.09)"/><path class="cls-6" d="M677.34,94.59s-7.79,5.75-5.41,15l.79.1,2.75-2.85,3.79,5.27-.53-5.37,1.63,1.17,2.78-5.81s-4.14-3-3.55-5.87C679.59,96.18,677.16,96.05,677.34,94.59Z" transform="translate(-597.54 -85.09)"/><path class="cls-6" d="M674.31,114a11.05,11.05,0,0,0,3.37,6.29l4.63-2.78S676.29,116.43,674.31,114Z" transform="translate(-597.54 -85.09)"/><path class="cls-6" d="M684,120.17s2.14,3.44,7.57,3.26c3.84-.14,6.33-5,5.37-9.73l-3.14,2.38-1.16-.76v2.47s-1.26,1.83-2.9.8C689.74,118.59,688.32,121.61,684,120.17Z" transform="translate(-597.54 -85.09)"/><path class="cls-6" d="M686,93.6c-.18.08,3.71,4.66,3.74,7.4a5,5,0,0,1,3.9-2.61,1.75,1.75,0,0,1,2.21-1.72S691.34,91.3,686,93.6Z" transform="translate(-597.54 -85.09)"/><path class="cls-6" d="M698.65,102.56a14.58,14.58,0,0,1,1.77,6.52s-2.66-2.73-4.8-.81l-.53-1.3a1.68,1.68,0,0,0,1.25-1.77,3.19,3.19,0,0,0-1.5-2.42S697.76,105.21,698.65,102.56Z" transform="translate(-597.54 -85.09)"/><path class="cls-5" d="M682.8,110.49c0,.05-3.38.9-7.57,1.91s-7.59,1.79-7.6,1.75,3.37-.89,7.56-1.9S682.79,110.45,682.8,110.49Z" transform="translate(-597.54 -85.09)"/><path class="cls-5" d="M683.68,105.14s-1.83-.59-4.07-1.39-4-1.5-4-1.54,1.84.58,4.07,1.39S683.7,105.1,683.68,105.14Z" transform="translate(-597.54 -85.09)"/><path class="cls-5" d="M681,85.15s1.46,4,3.17,8.93,3.06,9,3,9-1.46-4-3.17-8.94S681,85.16,681,85.15Z" transform="translate(-597.54 -85.09)"/><path class="cls-5" d="M692.3,96.64a4.3,4.3,0,0,1,0,.88c0,.54-.13,1.29-.26,2.11s-.3,1.55-.44,2.07a3.7,3.7,0,0,1-.26.84,6.47,6.47,0,0,1,.16-.86c.1-.53.25-1.27.38-2.08s.24-1.55.31-2.09A6.7,6.7,0,0,1,692.3,96.64Z" transform="translate(-597.54 -85.09)"/><path class="cls-5" d="M703.59,97.21s-2.57,1.59-5.79,3.46-5.84,3.38-5.86,3.34,2.57-1.59,5.79-3.47S703.57,97.17,703.59,97.21Z" transform="translate(-597.54 -85.09)"/><path class="cls-5" d="M703.62,111.61a1.55,1.55,0,0,1-.43,0l-1.16-.14c-1-.13-2.34-.34-3.83-.6s-2.83-.52-3.8-.73l-1.15-.25a3,3,0,0,1-.42-.12,2.12,2.12,0,0,1,.43.06l1.16.21,3.81.68,3.81.64,1.16.19A2.39,2.39,0,0,1,703.62,111.61Z" transform="translate(-597.54 -85.09)"/><path class="cls-5" d="M699.34,124.41s-2.29-2.43-5-5.5-5-5.57-4.93-5.6,2.29,2.44,5,5.5S699.37,124.38,699.34,124.41Z" transform="translate(-597.54 -85.09)"/><path class="cls-5" d="M681.38,123.31a1.41,1.41,0,0,1,.11-.34c.08-.22.2-.52.35-.9.31-.76.75-1.8,1.26-2.94s1-2.15,1.37-2.89c.18-.36.33-.66.44-.86a2.41,2.41,0,0,1,.18-.31,1.59,1.59,0,0,1-.13.34l-.39.88-1.33,2.91-1.3,2.91-.4.88A1.5,1.5,0,0,1,681.38,123.31Z" transform="translate(-597.54 -85.09)"/><path class="cls-5" d="M683.67,108.39s.24,0,.59-.19a2.66,2.66,0,0,0,1.14-.89,2.61,2.61,0,0,0,.48-1.37c0-.38,0-.61,0-.62a1.3,1.3,0,0,1,.12.63,2.6,2.6,0,0,1-.46,1.45,2.51,2.51,0,0,1-1.23.9A1.43,1.43,0,0,1,683.67,108.39Z" transform="translate(-597.54 -85.09)"/><path class="cls-5" d="M686.13,112.6a4,4,0,0,0,.17-.57,1.86,1.86,0,0,0-1.34-2.17c-.36-.1-.59-.07-.59-.1a1.13,1.13,0,0,1,.61,0,1.84,1.84,0,0,1,1.43,2.3A1,1,0,0,1,686.13,112.6Z" transform="translate(-597.54 -85.09)"/><path class="cls-5" d="M691.91,110.09s-.26-.07-.69-.12a3.24,3.24,0,0,0-1.62.2,3.33,3.33,0,0,0-1.33,1c-.27.33-.39.57-.41.56a1.42,1.42,0,0,1,.33-.63,3.14,3.14,0,0,1,1.35-1,3.18,3.18,0,0,1,1.7-.17A1.63,1.63,0,0,1,691.91,110.09Z" transform="translate(-597.54 -85.09)"/><path class="cls-5" d="M691.75,108.36a.88.88,0,0,1-.51-.11,1.84,1.84,0,0,1-1-2.12c.08-.32.2-.48.22-.47s-.07.19-.11.49a1.94,1.94,0,0,0,.17,1.16,2,2,0,0,0,.82.84C691.56,108.3,691.75,108.33,691.75,108.36Z" transform="translate(-597.54 -85.09)"/><path class="cls-5" d="M690,104.63s-.13.14-.38.32a2.32,2.32,0,0,1-1.12.43,1.22,1.22,0,0,1-1.08-.51c-.18-.28-.12-.5-.1-.49a1.13,1.13,0,0,0,.19.43,1.22,1.22,0,0,0,1,.42,2.49,2.49,0,0,0,1.07-.38A2.37,2.37,0,0,1,690,104.63Z" transform="translate(-597.54 -85.09)"/><g class="cls-9"><path d="M692.94,123.16a7.34,7.34,0,0,0,1.71-1.1l.55.51a15.06,15.06,0,0,0-2.24,1.71,7,7,0,0,1,0-1.12" transform="translate(-597.54 -85.09)"/></g><path class="cls-5" d="M694.81,121.89a2.24,2.24,0,0,1-.87.86,2.34,2.34,0,0,1-1.15.45s.51-.21,1.07-.58S694.78,121.86,694.81,121.89Z" transform="translate(-597.54 -85.09)"/><path class="cls-2" d="M693.63,122a2.46,2.46,0,0,1-.32.16,3,3,0,0,1-.38.15,4.74,4.74,0,0,1-.53.17,7.23,7.23,0,0,1-1.42.26,8.68,8.68,0,0,1-1.76,0,10.16,10.16,0,0,1-1.72-.38,8.35,8.35,0,0,1-1.32-.58,3.86,3.86,0,0,1-.47-.29,2.12,2.12,0,0,1-.35-.24,1.85,1.85,0,0,1-.27-.23s.42.29,1.14.66a8.82,8.82,0,0,0,1.31.54,10.15,10.15,0,0,0,1.7.37,9.2,9.2,0,0,0,1.73,0,9.38,9.38,0,0,0,1.4-.22C693.16,122.14,693.62,121.93,693.63,122Z" transform="translate(-597.54 -85.09)"/><path class="cls-2" d="M693.8,126.84a2.89,2.89,0,0,1-.39-1.15,2.64,2.64,0,0,1,0-1.21c.05,0,.05.54.16,1.18S693.85,126.82,693.8,126.84Z" transform="translate(-597.54 -85.09)"/><path class="cls-2" d="M677.28,119a2.25,2.25,0,0,1-.5-.42,8.24,8.24,0,0,1-1-1.22A8.73,8.73,0,0,1,675,116a2.15,2.15,0,0,1-.22-.62s.43.9,1.13,1.91S677.31,118.93,677.28,119Z" transform="translate(-597.54 -85.09)"/><path class="cls-2" d="M674.5,99.15s-.28.46-.67,1.22a14.37,14.37,0,0,0-1.6,6.46c0,.86,0,1.39,0,1.39s0-.13-.07-.37,0-.59-.06-1a13,13,0,0,1,.38-3.36,13.25,13.25,0,0,1,1.23-3.15c.22-.38.4-.68.54-.87A1.48,1.48,0,0,1,674.5,99.15Z" transform="translate(-597.54 -85.09)"/><path class="cls-2" d="M676.68,96.58s-.16.23-.41.44-.49.35-.52.32.16-.23.42-.44S676.65,96.54,676.68,96.58Z" transform="translate(-597.54 -85.09)"/><path class="cls-5" d="M682.73,169.31a.62.62,0,0,1,.17.2,1.22,1.22,0,0,1,.16.72,1.72,1.72,0,0,1-.51,1,3.74,3.74,0,0,1-3.11,1.17,3.46,3.46,0,0,1-2-.88,3.51,3.51,0,0,1-1.06-2.11,4.81,4.81,0,0,1,.38-2.52,8,8,0,0,1,1.38-2.14c.54-.62,1.1-1.17,1.56-1.77a4.67,4.67,0,0,0,.92-1.87,4.14,4.14,0,0,0,0-1.82,4.27,4.27,0,0,0-1.35-2.25,8.08,8.08,0,0,0-.81-.57,3.27,3.27,0,0,1,.84.52,4.21,4.21,0,0,1,1.44,4.15,5,5,0,0,1-.94,1.93c-.46.6-1,1.16-1.55,1.78a8.33,8.33,0,0,0-1.36,2.1,4.63,4.63,0,0,0-.37,2.44,3.29,3.29,0,0,0,1,2,3.38,3.38,0,0,0,1.87.86,3.6,3.6,0,0,0,1.79-.27,2.63,2.63,0,0,0,1.76-1.83,1.33,1.33,0,0,0-.12-.7A1.71,1.71,0,0,0,682.73,169.31Z" transform="translate(-597.54 -85.09)"/></g><g id="Monster"><path class="cls-6" d="M622.74,208.76c.87-4.06,5.84-33.54,5.84-33.54s-3.59.57-4.31,1.86-4.66,23.13-5.09,30.49a7.49,7.49,0,0,0-1.06,0,3.9,3.9,0,0,0-2.43,1,2.82,2.82,0,0,0,.39,4.31,2,2,0,0,0,.64,1.73,1.74,1.74,0,0,0,1.92,0,1.06,1.06,0,0,0,1.9.25c.24.55,1,.6,1.58.4a3.41,3.41,0,0,0,2.06-2.46,4.15,4.15,0,0,0-.7-3.18A4.55,4.55,0,0,0,622.74,208.76Z" transform="translate(-597.54 -85.09)"/><g class="cls-9"><path d="M623.46,204.53a16.21,16.21,0,0,1-1.6-13.47c1.15-4.13,3.45-8.35,5.56-12.09" transform="translate(-597.54 -85.09)"/></g><path class="cls-5" d="M622.3,212.45a1.19,1.19,0,0,0,.26-.22,1,1,0,0,0,.22-.86,1.18,1.18,0,0,0-1-.84,1.62,1.62,0,0,0-1.46.65,2.75,2.75,0,0,0-.55,1.58,3.27,3.27,0,0,0,.26,1.36,3.14,3.14,0,0,0,.75,1s0,0-.08,0a2,2,0,0,1-.21-.17,2.93,2.93,0,0,1-.56-.79,3.2,3.2,0,0,1-.3-1.42,2.88,2.88,0,0,1,.57-1.67,1.75,1.75,0,0,1,1.6-.69,1.27,1.27,0,0,1,1,1,1,1,0,0,1-.27.93,1.42,1.42,0,0,1-.22.16C622.33,212.45,622.3,212.46,622.3,212.45Z" transform="translate(-597.54 -85.09)"/><path class="cls-5" d="M615.74,212.72s.1.06.29.15a2.39,2.39,0,0,0,.85.25,2.3,2.3,0,0,0,1.26-.25,1.68,1.68,0,0,0,.58-.48,1,1,0,0,0,.2-.74,2.38,2.38,0,0,0-.72-1.25,2.85,2.85,0,0,0-1-.64l-.18-.07.19,0a8.76,8.76,0,0,0,1.35-.51,1.84,1.84,0,0,1-.33.22,4.76,4.76,0,0,1-1,.4v-.11a2.82,2.82,0,0,1,1.1.65,3,3,0,0,1,.48.57,1.9,1.9,0,0,1,.29.75,1.13,1.13,0,0,1-.22.86,2.1,2.1,0,0,1-.64.52,2.39,2.39,0,0,1-1.34.22,2.25,2.25,0,0,1-.87-.29l-.2-.15Z" transform="translate(-597.54 -85.09)"/><path class="cls-5" d="M618.44,212.77a5.09,5.09,0,0,0-.06,1,7.12,7.12,0,0,0,.29.93,1.37,1.37,0,0,1-.44-.91A1.3,1.3,0,0,1,618.44,212.77Z" transform="translate(-597.54 -85.09)"/><path class="cls-5" d="M620.62,210.69a1,1,0,0,0-.13-.36.73.73,0,0,0-.31-.26.86.86,0,0,0-.48,0,1.29,1.29,0,0,0-.75.51c-.16.19-.23.33-.25.32s0-.16.16-.38a1.29,1.29,0,0,1,.81-.6.91.91,0,0,1,.57.06.83.83,0,0,1,.34.33C620.71,210.52,620.64,210.7,620.62,210.69Z" transform="translate(-597.54 -85.09)"/><g class="cls-9"><path d="M617.31,209.66a1.42,1.42,0,0,1,1.36.37,2.2,2.2,0,0,1,1.19-.73A1,1,0,0,1,621,210,1.16,1.16,0,0,1,622,210a1.2,1.2,0,0,1,.59.9,1.65,1.65,0,0,0-2-.24.7.7,0,0,0-.5-.65,1,1,0,0,0-.84.16,1.71,1.71,0,0,0-.55.67,2.67,2.67,0,0,0-1.44-1.2" transform="translate(-597.54 -85.09)"/></g><path class="cls-8" d="M616.28,212.55s-.25-.1-.53-.42a2.67,2.67,0,0,1-.64-1.52,2.6,2.6,0,0,1,.41-1.58,1.46,1.46,0,0,1,.47-.5s-.17.2-.37.55a2.69,2.69,0,0,0-.36,1.52,2.8,2.8,0,0,0,.57,1.46C616.08,212.38,616.3,212.53,616.28,212.55Z" transform="translate(-597.54 -85.09)"/><path class="cls-6" d="M680.52,154.68c-.2-.56-.73-1.13-1.3-1a1.06,1.06,0,0,0-1.4-1.31,1.75,1.75,0,0,0-1.17-1.52,2,2,0,0,0-1.75.6,2.83,2.83,0,0,0-1.68,0,2.93,2.93,0,0,0-1.9,2.39,3.78,3.78,0,0,0,.74,2.52,9.91,9.91,0,0,0,1.55,1.69c-3.05,14.24-18.68,16.72-18.68,16.72l1.46,5.74c15-3.71,19.11-15.65,20.23-21.26h.4a4.18,4.18,0,0,0,2.9-1.48A3.36,3.36,0,0,0,680.52,154.68Z" transform="translate(-597.54 -85.09)"/><path class="cls-5" d="M678.48,156.59s0,0,0,.08a1.07,1.07,0,0,1,0,.27,1,1,0,0,1-.54.8,1.28,1.28,0,0,1-1.4-.21,1.74,1.74,0,0,1-.48-1.68,2.86,2.86,0,0,1,.93-1.5,3.24,3.24,0,0,1,1.29-.66,2.61,2.61,0,0,1,1-.06,1,1,0,0,1,.25.05q.09,0,.09,0a3.55,3.55,0,0,0-1.29.09,3.1,3.1,0,0,0-1.21.66,2.78,2.78,0,0,0-.88,1.42,1.6,1.6,0,0,0,.42,1.54,1.17,1.17,0,0,0,1.26.22,1,1,0,0,0,.53-.71A1.26,1.26,0,0,0,678.48,156.59Z" transform="translate(-597.54 -85.09)"/><path class="cls-5" d="M674.53,151.34h.09a1,1,0,0,1,.24.06,2.08,2.08,0,0,1,.78.48,2.33,2.33,0,0,1,.67,1.19,2,2,0,0,1,0,.81,1.09,1.09,0,0,1-.52.72,1.88,1.88,0,0,1-.77.25,2.68,2.68,0,0,1-.75,0,2.76,2.76,0,0,1-1.2-.44l.08-.07a4.19,4.19,0,0,1,.32,1,1.66,1.66,0,0,1,0,.4,8.23,8.23,0,0,0-.46-1.37l-.08-.17.16.1a2.94,2.94,0,0,0,1.16.39,2.37,2.37,0,0,0,1.42-.23,1,1,0,0,0,.45-.62,1.77,1.77,0,0,0,0-.76,2.24,2.24,0,0,0-.61-1.13,2.18,2.18,0,0,0-.72-.5C674.65,151.38,674.53,151.36,674.53,151.34Z" transform="translate(-597.54 -85.09)"/><path class="cls-5" d="M676.28,153.4a1.33,1.33,0,0,1,.64-.79,1.38,1.38,0,0,1,1-.24,7.05,7.05,0,0,0-.9.37C676.54,153,676.33,153.43,676.28,153.4Z" transform="translate(-597.54 -85.09)"/><path class="cls-5" d="M676.05,156.41s-.08.17-.35.23a.81.81,0,0,1-.47-.06,1,1,0,0,1-.41-.4,1.33,1.33,0,0,1-.05-1c.08-.24.18-.37.2-.36a2.59,2.59,0,0,1-.09.39,1.32,1.32,0,0,0,.08.9.77.77,0,0,0,.34.35.7.7,0,0,0,.39.08A1.24,1.24,0,0,0,676.05,156.41Z" transform="translate(-597.54 -85.09)"/><g class="cls-9"><path d="M673.16,154.49a1.44,1.44,0,0,0,1.15.82,2.11,2.11,0,0,0,.19,1.38,1,1,0,0,0,1.21.44,1.18,1.18,0,0,0,1.79.68,1.64,1.64,0,0,1-1.48-1.44.69.69,0,0,1-.82,0,1,1,0,0,1-.41-.75,1.93,1.93,0,0,1,.17-.85,2.7,2.7,0,0,1-1.84-.35" transform="translate(-597.54 -85.09)"/></g><path class="cls-6" d="M634.92,209.92l2.82,12a6.72,6.72,0,0,0-4.24.79c-.44.25-.91.75-.67,1.2s.67.38,1.07.36c3.12-.13,6.24.13,9.36,0l-.18-12.15" transform="translate(-597.54 -85.09)"/><path class="cls-6" d="M651.81,209.92l-2.82,12a6.74,6.74,0,0,1,4.24.79c.44.25.91.75.67,1.2s-.67.38-1.07.36c-3.12-.13-6.24.13-9.36,0l.17-12.15" transform="translate(-597.54 -85.09)"/><g class="cls-9"><path d="M635.57,212.71l.39,1.58c2.55.14,5,.53,7.16.06l0-1.4a26.74,26.74,0,0,1-4.15-.54h0l.69,1.27A19.14,19.14,0,0,1,635.57,212.71Z" transform="translate(-597.54 -85.09)"/></g><g class="cls-9"><path d="M643.61,214.32a13.06,13.06,0,0,0,4.94.26c2.05-.35,2.33-.72,2.33-.72l.64-2.69a11.09,11.09,0,0,1-7.25.75l2.3,1h-2.94Z" transform="translate(-597.54 -85.09)"/></g><path class="cls-6" d="M663.22,194.55a27.27,27.27,0,0,0-3.66-5.54v0a9,9,0,0,0,2.37.17,13.71,13.71,0,0,1-3.48-3.8c-1.21-4.47-2.5-9-2.53-13.53l-27.18-.21a83.68,83.68,0,0,1-3.76,16c-1.87,5.64-4,12.33-.25,17.84a10.1,10.1,0,0,0,2.53,2.52,36.91,36.91,0,0,0,3.74,3.44l-.68-1.73.46.2a18.43,18.43,0,0,0,9.27,4c-.17-.4-.33-.8-.5-1.21a18.82,18.82,0,0,0,11.38-1.19c6.6-3.11,10.06-6.79,10.89-11.62A13.71,13.71,0,0,0,661,193Z" transform="translate(-597.54 -85.09)"/><path class="cls-5" d="M654.24,195.89s0,0-.11,0a2,2,0,0,1-.31-.06,8,8,0,0,1-1.13-.34,9.53,9.53,0,0,1-3.34-2.15l.13-.08.4,1,.71,1.84.17.44-.29-.37-2.12-2.63-.61-.77a1.68,1.68,0,0,1-.2-.28,1.82,1.82,0,0,1,.24.25l.64.74,2.16,2.6-.12.07c-.23-.57-.47-1.19-.72-1.84l-.4-1-.13-.34.25.26a10,10,0,0,0,3.27,2.16,8.66,8.66,0,0,0,1.11.38A4.14,4.14,0,0,1,654.24,195.89Z" transform="translate(-597.54 -85.09)"/><path class="cls-5" d="M630.76,190.52a3.41,3.41,0,0,1-.3-.71,7.93,7.93,0,0,1-.37-1.82,7.6,7.6,0,0,1,.07-1.85,3.07,3.07,0,0,1,.18-.75,5.59,5.59,0,0,1-.07.76,9.73,9.73,0,0,0,0,1.83,10.57,10.57,0,0,0,.32,1.8A3.92,3.92,0,0,1,630.76,190.52Z" transform="translate(-597.54 -85.09)"/><path class="cls-5" d="M631.67,188.2a1.48,1.48,0,0,1-.18-.53,5.45,5.45,0,0,1-.17-1.36,5.74,5.74,0,0,1,.13-1.36,1.37,1.37,0,0,1,.17-.53s-.17.84-.15,1.89S631.72,188.19,631.67,188.2Z" transform="translate(-597.54 -85.09)"/><path class="cls-5" d="M641.33,205.6l-.17,0-.46-.12a13.36,13.36,0,0,1-1.65-.59,15.54,15.54,0,0,1-4.83-3.23l.12-.1.18.27a10.15,10.15,0,0,1,1.33,2.71l.06.18-.16-.09a8.08,8.08,0,0,1-2.84-2.77,6.79,6.79,0,0,1-.53-1c0-.12-.08-.22-.1-.28s0-.1,0-.11.06.13.18.37a8.62,8.62,0,0,0,.55,1,8.32,8.32,0,0,0,2.84,2.69l-.11.09a10.21,10.21,0,0,0-1.31-2.68l-.19-.26.12-.1a16.4,16.4,0,0,0,4.76,3.25c.68.29,1.24.5,1.63.62l.45.15C641.28,205.57,641.33,205.59,641.33,205.6Z" transform="translate(-597.54 -85.09)"/><path class="cls-5" d="M627.42,178v.07l0,.2-.09.78c-.1.67-.27,1.64-.56,2.82s-.69,2.58-1.18,4.11-1,3.21-1.53,5a37.25,37.25,0,0,0-1.11,5.09,18,18,0,0,0-.07,4.24,13.13,13.13,0,0,0,.65,2.79c.13.31.22.56.3.72l.08.18,0,.07s0,0,0-.06l-.1-.18c-.08-.16-.19-.4-.32-.71a11.05,11.05,0,0,1-.7-2.8,17,17,0,0,1,0-4.27,35.66,35.66,0,0,1,1.1-5.11c.5-1.79,1.06-3.47,1.55-5s.9-2.92,1.2-4.09.5-2.14.61-2.81c0-.33.09-.6.12-.77l0-.2S627.41,178,627.42,178Z" transform="translate(-597.54 -85.09)"/><path class="cls-8" d="M628.57,207l-.19-.15c-.12-.12-.31-.26-.52-.49a11.29,11.29,0,0,1-1.6-2.08,13.89,13.89,0,0,1-1.47-3.6,17.33,17.33,0,0,1-.52-4.73,26.86,26.86,0,0,1,.61-4.73c.32-1.43.68-2.7,1-3.75s.62-1.9.82-2.49l.24-.67a1.17,1.17,0,0,1,.1-.23s0,.08-.07.24l-.21.68c-.18.59-.46,1.44-.77,2.5s-.67,2.33-1,3.75a26.81,26.81,0,0,0-.59,4.7,17.57,17.57,0,0,0,.5,4.7,13.68,13.68,0,0,0,1.43,3.57,11.66,11.66,0,0,0,1.54,2.1c.2.23.39.38.5.5A1.21,1.21,0,0,1,628.57,207Z" transform="translate(-597.54 -85.09)"/><path class="cls-8" d="M631.35,207.87a9.61,9.61,0,0,1-1.43-1.1,10.29,10.29,0,0,1-1.33-1.23,11.16,11.16,0,0,1,1.43,1.11A10.68,10.68,0,0,1,631.35,207.87Z" transform="translate(-597.54 -85.09)"/><path class="cls-7" d="M620.61,124.71c-.22.05-5.7,2.58-4.67,9.84.91,6.36,4.67,6.51,4.67,6.51l7-6.13s-5.09-.55-6.4-4.26S620.61,124.71,620.61,124.71Z" transform="translate(-597.54 -85.09)"/><path class="cls-5" d="M623.68,133.51s-.51,0-1.3.2a6.74,6.74,0,0,0-2.77,1.43,6.66,6.66,0,0,0-1.77,2.56c-.29.76-.34,1.27-.37,1.26a1.52,1.52,0,0,1,0-.35,5.17,5.17,0,0,1,.24-.94,6.21,6.21,0,0,1,4.62-4.06,6.34,6.34,0,0,1,1-.12A1.48,1.48,0,0,1,623.68,133.51Z" transform="translate(-597.54 -85.09)"/><path class="cls-5" d="M621.59,131.21s-.42-.05-1.07,0a5.1,5.1,0,0,0-4.1,2.67,9.33,9.33,0,0,0-.43,1,.77.77,0,0,1,0-.29,4.2,4.2,0,0,1,.29-.74,4.93,4.93,0,0,1,1.71-1.94,5.11,5.11,0,0,1,2.47-.79,4.25,4.25,0,0,1,.79,0A.92.92,0,0,1,621.59,131.21Z" transform="translate(-597.54 -85.09)"/><path class="cls-5" d="M616.24,129.92s0-.08.07-.2a2.41,2.41,0,0,1,.28-.49,3.15,3.15,0,0,1,1.52-1.09,2.6,2.6,0,0,1,1.86.1,2.4,2.4,0,0,1,.5.28.59.59,0,0,1,.15.15s-.25-.17-.69-.33a2.68,2.68,0,0,0-1.77-.06,3.36,3.36,0,0,0-1.48,1C616.38,129.66,616.27,129.93,616.24,129.92Z" transform="translate(-597.54 -85.09)"/><path class="cls-2" d="M619.24,126a5,5,0,0,1-.4.44,10.81,10.81,0,0,0-1,1.26,9.93,9.93,0,0,0-1.64,4.94,9.81,9.81,0,0,0,1.17,5.08,10.5,10.5,0,0,0,.86,1.35,4.57,4.57,0,0,1,.35.47l-.11-.11c-.06-.07-.17-.18-.29-.33a9.18,9.18,0,0,1-.91-1.33,9.53,9.53,0,0,1,.48-10.13,8.56,8.56,0,0,1,1-1.24c.13-.14.25-.23.32-.3Z" transform="translate(-597.54 -85.09)"/><path class="cls-7" d="M662.15,125.33c.22.06,5.7,2.59,4.67,9.85-.91,6.36-4.67,6.5-4.67,6.5l-7-6.13s5.09-.54,6.41-4.25S662.15,125.33,662.15,125.33Z" transform="translate(-597.54 -85.09)"/><path class="cls-5" d="M659.08,134.13a1.27,1.27,0,0,1,.36,0,5.09,5.09,0,0,1,1,.11,6.38,6.38,0,0,1,2.85,1.42,6.28,6.28,0,0,1,1.77,2.64,5.38,5.38,0,0,1,.24.94,1,1,0,0,1,0,.35s-.08-.5-.37-1.25a6.59,6.59,0,0,0-1.77-2.56,6.51,6.51,0,0,0-2.77-1.43C659.59,134.15,659.08,134.16,659.08,134.13Z" transform="translate(-597.54 -85.09)"/><path class="cls-5" d="M661.32,131.85a2,2,0,0,1,.28-.06,4.08,4.08,0,0,1,.77,0,4.53,4.53,0,0,1,2.41.81,4.92,4.92,0,0,1,1.67,1.92,4.25,4.25,0,0,1,.27.72.75.75,0,0,1,0,.28s-.12-.39-.42-.95a5.27,5.27,0,0,0-1.66-1.85,4.82,4.82,0,0,0-2.33-.82C661.72,131.81,661.32,131.88,661.32,131.85Z" transform="translate(-597.54 -85.09)"/><path class="cls-5" d="M666.52,130.54s-.14-.26-.44-.62a3.22,3.22,0,0,0-1.48-1,2.75,2.75,0,0,0-1.77.05c-.44.16-.67.35-.69.33a.67.67,0,0,1,.15-.14,2.36,2.36,0,0,1,.5-.29,2.6,2.6,0,0,1,1.86-.1,3.15,3.15,0,0,1,1.52,1.09,2.71,2.71,0,0,1,.28.49C666.51,130.47,666.53,130.54,666.52,130.54Z" transform="translate(-597.54 -85.09)"/><path class="cls-2" d="M662.65,126a2,2,0,0,1,.12.34,2.37,2.37,0,0,1,.11.41,5.53,5.53,0,0,1,.1.55c0,.2,0,.43.06.67s0,.51,0,.79a8.59,8.59,0,0,1-.31,1.76,7.94,7.94,0,0,1-.7,1.64,5.78,5.78,0,0,1-.42.66,6.33,6.33,0,0,1-.41.54,5.24,5.24,0,0,1-.39.41,2.44,2.44,0,0,1-.31.28,2.16,2.16,0,0,1-.28.22s.38-.35.89-1a6.32,6.32,0,0,0,.4-.54c.14-.2.26-.42.4-.66a8.43,8.43,0,0,0,1-3.34c0-.27,0-.53,0-.77a6.71,6.71,0,0,0,0-.67C662.78,126.49,662.62,126,662.65,126Z" transform="translate(-597.54 -85.09)"/><path class="cls-6" d="M637.05,129.52s-.93.26-.53-3.44l3.17,3.44a14.27,14.27,0,0,1-1.63-4s4,3.71,5.4,4,10.92.79,16.48,5.56,8.07,9.37,8.68,14.37c1,8.1-.48,15-4.32,19.63l-.13-1.33s-4.1,6-10.32,7.68-24.61,0-24.61,0-10.32-2.78-13.89-10.85-1.59-9.26-1.59-9.26l-1.53,1.45a26,26,0,0,1,10-19.84C630.43,130.45,637.05,129.52,637.05,129.52Z" transform="translate(-597.54 -85.09)"/><path class="cls-5" d="M657.06,174.11l-.07,0-.21.11c-.18.09-.45.24-.81.41-.72.34-1.78.82-3.13,1.33a27.8,27.8,0,0,1-5,1.36,18.58,18.58,0,0,1-3.07.3,14.92,14.92,0,0,1-3.34-.32l.06-.13,2.57,1.79.31.22-.37-.08-.69-.15-6.11-1.31.07-.12,1.43,1.5.16.18-.23-.06a36.28,36.28,0,0,1-7.9-2.93c-.91-.46-1.62-.87-2.09-1.16l-.54-.33-.14-.09s0,0,0,0l0,0,.14.08.55.31c.48.28,1.19.67,2.11,1.13a37.43,37.43,0,0,0,7.9,2.86l-.07.12-1.44-1.5-.17-.18.24.05,6.11,1.31.69.15-.06.13-2.56-1.79-.31-.21.37.07a14.47,14.47,0,0,0,3.3.32,18.48,18.48,0,0,0,3-.28,26.88,26.88,0,0,0,4.93-1.33c1.36-.49,2.42-1,3.14-1.28l.83-.39.22-.09Z" transform="translate(-597.54 -85.09)"/><g class="cls-9"><path d="M657.06,174.11c-5,2.5-10.65,4.23-15.56,3.16l2.56,1.79-6.8-1.45,1.44,1.5A36.67,36.67,0,0,1,628,174.63s5.41,5.65,11.67,6C650,181.08,657.06,174.11,657.06,174.11Z" transform="translate(-597.54 -85.09)"/></g><path class="cls-5" d="M622.5,166.14a.65.65,0,0,1-.18-.1c-.12-.08-.3-.17-.51-.33a11.61,11.61,0,0,1-1.7-1.44,12.65,12.65,0,0,1-2-2.62,13.14,13.14,0,0,1-1.49-3.77l.15,0V158c0,1.59.1,3.09.14,4.42v.36l-.15-.32a14.36,14.36,0,0,1-1.14-4.24c-.06-.53-.07-1-.08-1.25,0-.14,0-.25,0-.33s0-.11,0-.11a.5.5,0,0,1,0,.11l0,.33c0,.29,0,.71.11,1.24a15,15,0,0,0,1.19,4.19l-.13,0c0-1.34-.1-2.84-.15-4.42v-.12h.15a13.26,13.26,0,0,0,1.46,3.73,13.53,13.53,0,0,0,2,2.62,14.3,14.3,0,0,0,1.66,1.46c.21.16.38.27.49.35Z" transform="translate(-597.54 -85.09)"/><path class="cls-5" d="M663.47,158.81a.5.5,0,0,1,.1-.14l.28-.38c.11-.17.23-.39.38-.64l.2-.42.11-.23.09-.25a15.74,15.74,0,0,0,.84-5.62c0-.32,0-.63,0-.94l0-.59.19.56c.19.58.38,1.14.56,1.67H666a5.67,5.67,0,0,0,.37-2.11,6.11,6.11,0,0,0-.26-1.68,8.81,8.81,0,0,0-.6-1.39l.06.09a1.37,1.37,0,0,1,.16.25,5.14,5.14,0,0,1,.47,1,6,6,0,0,1-.06,3.86l-.07.19-.07-.19-.57-1.67.15,0c0,.31,0,.63,0,.95a15.38,15.38,0,0,1-.9,5.66l-.1.25-.11.23-.21.43c-.16.24-.29.46-.41.63l-.31.36Z" transform="translate(-597.54 -85.09)"/><path class="cls-5" d="M650.36,136.79h-.21c-.13,0-.33,0-.59,0a15.63,15.63,0,0,1-2.15-.28,16.2,16.2,0,0,1-6.51-2.95l.1-.11,0,.05,2.74,2.79.16.16-.23,0a7.4,7.4,0,0,1-2.38-.94,7.22,7.22,0,0,1-1.55-1.27,6.62,6.62,0,0,1-.79-1c-.08-.13-.13-.24-.17-.3l-.05-.11a2.35,2.35,0,0,1,.26.38,6.73,6.73,0,0,0,.82,1,7.33,7.33,0,0,0,1.54,1.23,7.43,7.43,0,0,0,2.35.9l-.06.12-2.75-2.78-.05,0,.1-.12a16.58,16.58,0,0,0,6.44,3,19.07,19.07,0,0,0,2.14.33c.25,0,.45,0,.59,0Z" transform="translate(-597.54 -85.09)"/><path class="cls-2" d="M630.78,133l-.07,0-.21.07c-.18.07-.46.16-.81.3a26.43,26.43,0,0,0-2.9,1.27,25.65,25.65,0,0,0-12.95,15.66,26.73,26.73,0,0,0-.71,3.08c-.07.37-.1.66-.14.85l0,.22,0,.08v-.08l0-.22c0-.2,0-.49.11-.86a22.28,22.28,0,0,1,.67-3.1,25,25,0,0,1,1.7-4.4,25,25,0,0,1,7.3-8.83,25.34,25.34,0,0,1,4-2.49,23.57,23.57,0,0,1,2.93-1.24c.35-.13.63-.2.82-.26l.22-.07S630.78,133,630.78,133Z" transform="translate(-597.54 -85.09)"/><path class="cls-2" d="M617.36,165.38a2.16,2.16,0,0,1-.3-.3,4.51,4.51,0,0,1-.32-.37,6.31,6.31,0,0,1-.41-.52,11.37,11.37,0,0,1-.9-1.46,12.21,12.21,0,0,1-1.28-4A12.16,12.16,0,0,1,614,157a6.32,6.32,0,0,1,0-.65,3.37,3.37,0,0,1,0-.5,3.16,3.16,0,0,1,.07-.42,1.45,1.45,0,0,1,0,.43c0,.13,0,.3,0,.49s0,.41,0,.65a12.23,12.23,0,0,0,.14,1.69,14.2,14.2,0,0,0,.47,2,15,15,0,0,0,.79,1.92,13.73,13.73,0,0,0,.87,1.46c.13.2.27.37.38.53s.22.28.31.38A1.74,1.74,0,0,1,617.36,165.38Z" transform="translate(-597.54 -85.09)"/><path class="cls-2" d="M619.81,168.16s-.3,0-.6-.23-.46-.46-.43-.48.24.16.52.35S619.83,168.12,619.81,168.16Z" transform="translate(-597.54 -85.09)"/><path class="cls-2" d="M637.83,130a2.9,2.9,0,0,1-1-1.35,2.86,2.86,0,0,1-.22-1.64,6.93,6.93,0,0,0,.36,1.59A9.22,9.22,0,0,0,637.83,130Z" transform="translate(-597.54 -85.09)"/><g class="cls-9"><path d="M635.14,162.82l.55-.9a.53.53,0,0,0,.13.49,1.63,1.63,0,0,0,.42.31,1.05,1.05,0,0,0,1,.13.86.86,0,0,0,.3-.93c-.06-.27-.18-.52-.26-.79a1.06,1.06,0,0,1,.06-.82,1.29,1.29,0,0,1,.81-.47,10.3,10.3,0,0,1,3.53-.38,6.32,6.32,0,0,1,3.3,1.24,1.54,1.54,0,0,0-.83-.94A6.58,6.58,0,0,0,639,159a5.88,5.88,0,0,0-3.84,3.45" transform="translate(-597.54 -85.09)"/></g><path class="cls-2" d="M636,161.25a2.42,2.42,0,0,0,.77,1.29.53.53,0,0,0,.52.15c.19-.1.2-.37.16-.59a4.72,4.72,0,0,0-.67-1.76" transform="translate(-597.54 -85.09)"/><path class="cls-2" d="M645.9,161.25a2.36,2.36,0,0,1-.77,1.29.53.53,0,0,1-.52.15c-.19-.1-.2-.37-.16-.59a5.09,5.09,0,0,1,.67-1.76" transform="translate(-597.54 -85.09)"/><path class="cls-5" d="M647.29,162.58c-.1.07-.63-.6-1.69-1.44a9.18,9.18,0,0,0-2-1.2,7.55,7.55,0,0,0-2.73-.65,6.48,6.48,0,0,0-2.73.46,5.33,5.33,0,0,0-1.86,1.29,13.17,13.17,0,0,0-1.17,1.81s-.07-.23,0-.63a4,4,0,0,1,.75-1.53,5.34,5.34,0,0,1,2-1.59,6.5,6.5,0,0,1,3.06-.58,7.75,7.75,0,0,1,3,.77,8.1,8.1,0,0,1,2.05,1.44C647,161.73,647.36,162.53,647.29,162.58Z" transform="translate(-597.54 -85.09)"/><g class="cls-9"><path d="M643.34,166.42c0,.09-.21.34-.71.59a5.53,5.53,0,0,1-4.25.17c-.52-.21-.79-.44-.75-.53s1.32.18,2.86.1S643.23,166.22,643.34,166.42Z" transform="translate(-597.54 -85.09)"/></g><path class="cls-2" d="M629.63,144.6a35.93,35.93,0,0,0,22.75.2s-1.46,10.39-11.35,10.95S629.63,144.6,629.63,144.6Z" transform="translate(-597.54 -85.09)"/><path class="cls-5" d="M637.18,146.38a11.91,11.91,0,0,0,1.14,7.11,4.29,4.29,0,0,0,1.17,1.61,1.89,1.89,0,0,0,1.87.36,2.64,2.64,0,0,0,1.25-1.43c1.19-2.58,1.3-4.68,1.43-7.51A14.15,14.15,0,0,1,637.18,146.38Z" transform="translate(-597.54 -85.09)"/><g class="cls-9"><path d="M650.91,150.29s-.08.37-.41.94a10.07,10.07,0,0,1-1.76,2.16,12.42,12.42,0,0,1-1.52,1.21,13,13,0,0,1-2,1.05,11.67,11.67,0,0,1-5,.93,11.55,11.55,0,0,1-4.91-1.4,12.53,12.53,0,0,1-1.86-1.24,11.29,11.29,0,0,1-1.4-1.34,10.15,10.15,0,0,1-1.54-2.32,2.36,2.36,0,0,1-.33-1c.06,0,.24.29.59.82a13,13,0,0,0,1.68,2.1,14.36,14.36,0,0,0,1.39,1.21,12.51,12.51,0,0,0,1.8,1.11,11.65,11.65,0,0,0,4.61,1.26A11.84,11.84,0,0,0,645,155a14,14,0,0,0,1.9-.94,13.19,13.19,0,0,0,1.5-1.08,13.36,13.36,0,0,0,1.87-1.92C650.65,150.56,650.86,150.26,650.91,150.29Z" transform="translate(-597.54 -85.09)"/></g><g class="cls-9"><path d="M650.15,143.06a1.23,1.23,0,0,0-.9.2,15.63,15.63,0,0,1-8.82,1.51,15.83,15.83,0,0,1-8.38-3.4,1.49,1.49,0,0,0-.51,1.86,3.55,3.55,0,0,0,1.45,1.5,14.88,14.88,0,0,0,6.87,2.22,22.56,22.56,0,0,0,7.22-.68,5.72,5.72,0,0,0,3.14-1.61,1.51,1.51,0,0,0,.38-.84A.75.75,0,0,0,650.15,143.06Z" transform="translate(-597.54 -85.09)"/></g><path class="cls-5" d="M649.76,143c.12.15-.65,1-2.29,1.84a12.51,12.51,0,0,1-3,1,13.38,13.38,0,0,1-3.95.22,13.18,13.18,0,0,1-3.85-1,12,12,0,0,1-2.78-1.61c-1.45-1.12-2.05-2.11-1.9-2.24s1,.52,2.5,1.33a16.06,16.06,0,0,0,6.17,2,16.28,16.28,0,0,0,6.44-.75C648.67,143.3,649.63,142.8,649.76,143Z" transform="translate(-597.54 -85.09)"/><path class="cls-2" d="M639.35,153.44s-.07-.06-.16-.18a6.15,6.15,0,0,1-.38-.57,7.31,7.31,0,0,1-.81-2.07,7.48,7.48,0,0,1-.14-2.23,5.16,5.16,0,0,1,.11-.67c0-.15.06-.24.07-.23s0,.35-.07.91a8.51,8.51,0,0,0,.18,2.18,8.29,8.29,0,0,0,.76,2.06C639.17,153.14,639.37,153.43,639.35,153.44Z" transform="translate(-597.54 -85.09)"/><path class="cls-5" d="M654.74,144.18a4.55,4.55,0,0,1-1,.44c-.32.13-.72.28-1.19.42s-1,.34-1.59.49-1.25.34-2,.48c-.35.08-.72.17-1.1.23l-1.18.2a36.21,36.21,0,0,1-10.6,0c-.81-.14-1.57-.26-2.28-.43l-1-.23-.93-.25c-.6-.15-1.13-.34-1.59-.49l-.65-.22-.53-.21a4.83,4.83,0,0,1-1-.45c0-.08,1.45.46,3.83,1l.94.22c.32.08.66.14,1,.21.7.15,1.46.25,2.26.37a42.38,42.38,0,0,0,5.24.35,40.25,40.25,0,0,0,5.24-.37l1.17-.17,1.09-.2c.71-.12,1.36-.29,2-.43s1.13-.29,1.6-.41.87-.25,1.2-.35A4.85,4.85,0,0,1,654.74,144.18Z" transform="translate(-597.54 -85.09)"/></g><g id="Floor"><path class="cls-5" d="M732.49,224.24s-30.22.08-67.48.08-67.47,0-67.47-.08,30.2-.07,67.47-.07S732.49,224.2,732.49,224.24Z" transform="translate(-597.54 -85.09)"/></g><g id="Lightning"><polygon class="cls-6" points="52.5 42.44 50.89 35.21 54.72 34.82 55.97 28.37 56.52 36.33 52.63 36.72 52.5 42.44"/><polygon class="cls-6" points="54.67 43.39 57.14 38.21 59.67 39.8 63.51 36.47 60.04 41.59 57.48 39.97 54.67 43.39"/><polygon class="cls-10" points="52.5 42.44 50.89 35.21 54.72 34.82 55.97 28.37 56.52 36.33 52.63 36.72 52.5 42.44"/><polygon class="cls-10" points="54.67 43.39 57.14 38.21 59.67 39.8 63.51 36.47 60.04 41.59 57.48 39.97 54.67 43.39"/></g></svg>